# xmcd CD database file
# Copyright (C) 1997 Ti Kan
# 
# Track frame offsets:
#     183
#     19530
#     34408
#     45408
#     62040
#     75963
#     86625
#     102683
#     119375
#     134813
#     145990
#     166608
#     177078
#     187543
#     200363
#     213935
#     230190
#     243053
#     253763
#     261950
# 
# Disc length: 3652 seconds
# 
# Revision: 1
# Processed by: cddbd v1.4b41PL1 Copyright (c) Steve Scherf et al.
# Submitted via: DiscPlay 4.0.4
# 
DISCID=100e4214
DTITLE=Greeks - The Music Of Greece
DYEAR=1900
DGENRE=
TTITLE0=Zorba's Dance
TTITLE1=Oniro Demeno
TTITLE2=Doxa To Theo
TTITLE3=O Kiamos
TTITLE4=Aponi Zoi
TTITLE5=To Pallikari Kaimo
TTITLE6=Vraho Vraho
TTITLE7='sto Perigiali To Krifo
TTITLE8=Deka Pallikaria
TTITLE9=Who Pays The Ferryman
TTITLE10=Play Bouzouki
TTITLE11=Fragosyriani
TTITLE12=Otan Simanoun
TTITLE13=Varka Sto Yalo
TTITLE14=Matia Vourkomena
TTITLE15=I Margarita I Margaro
TTITLE16=Kalimepa Ilie
TTITLE17=Emaste Dio
TTITLE18=S' Afti Ti Gitonia
TTITLE19=Baxe Tsifliki
EXTD=
EXTT0=
EXTT1=
EXTT2=
EXTT3=
EXTT4=
EXTT5=
EXTT6=
EXTT7=
EXTT8=
EXTT9=
EXTT10=
EXTT11=
EXTT12=
EXTT13=
EXTT14=
EXTT15=
EXTT16=
EXTT17=
EXTT18=
EXTT19=
PLAYORDER=
